<svg xmlns="http://www.w3.org/2000/svg" width="46" height="35" viewBox="0 0 46 35" fill="none">
<path fill-rule="evenodd" clip-rule="evenodd" d="M31.2364 24.9602H26.99C24.8757 24.9602 21.511 22.1902 21.511 19.907V15.73C21.511 14.3848 20.4044 13.2963 19.0369 13.2963H14.7905C13.423 13.2963 12.3164 14.3848 12.3164 15.73V19.907C12.3164 21.2522 13.423 22.3407 14.7905 22.3407H18.2902C20.8992 22.3407 24.5159 24.5266 24.5159 27.3939V31.5798C24.5159 32.9249 25.6225 34.0134 26.99 34.0134H31.2364C32.6039 34.0134 33.7105 32.9249 33.7105 31.5798V28.562C33.7105 25.0044 37.0032 22.3495 40.467 22.3495H43.5258C44.8933 22.3495 45.9999 21.261 45.9999 19.9159V15.7388C45.9999 14.3937 44.8933 13.3051 43.5258 13.3051C40.2151 13.3051 33.7644 12.0131 33.7644 7.57939V3.40233C33.7644 2.05718 32.6579 0.968662 31.2904 0.968662H27.0439C25.6764 0.968662 24.5699 2.05718 24.5699 3.40233V7.57939C24.5699 8.92454 25.6764 10.0131 27.0439 10.0131H31.2904C38.2718 10.0219 39.3424 24.9602 31.2364 24.9602Z" fill="#00CD2F"/>
<path fill-rule="evenodd" clip-rule="evenodd" d="M14.5656 34.0312H18.812C20.1795 34.0312 21.2861 32.9427 21.2861 31.5976V27.4205C21.2861 26.0754 20.1795 24.9869 18.812 24.9869H14.5656C12.9822 24.9869 11.1559 23.6417 10.0763 22.1019C8.91569 20.4027 8.83472 16.7832 9.29355 14.9159C9.90532 12.4292 11.8666 10.0486 14.6016 10.0486H18.848C21.7449 10.0486 23.9671 13.084 24.363 15.7212V19.6328C24.363 20.978 25.4695 22.0665 26.837 22.0665H31.0835C32.451 22.0665 33.5575 20.978 33.5575 19.6328V15.4557C33.5575 11.8628 28.5374 13.6062 25.7394 12.4469C23.5713 11.5442 21.3221 9.79194 21.3221 7.61492V3.43786C21.3221 2.09271 20.2155 1.0042 18.848 1.0042H14.6196C13.2521 1.0042 12.1455 2.09271 12.1455 3.43786V7.60607C12.1455 12.0752 5.82984 12.9955 2.47408 12.9955C1.10659 12.9955 0 14.084 0 15.4292V19.6063C0 20.9514 1.10659 22.0399 2.47408 22.0399H5.23606C8.05201 22.0399 12.1095 24.3762 12.1095 27.4117V31.5887C12.0915 32.9339 13.1981 34.0312 14.5656 34.0312Z" fill="#14265E"/>
</svg>