<svg xmlns="http://www.w3.org/2000/svg" width="86" height="23" viewBox="0 0 86 23" fill="none">
<g clip-path="url(#clip0_1_246)">
<path d="M0 22.9663V0H3.64492V22.9663H0Z" fill="#1D1D1B"/>
<path d="M10.851 14.6302V22.9831H7.20605V0H17.301C19.0646 0 20.3748 0.151871 21.2314 0.472487C22.6928 0.995598 23.8014 1.9237 24.5404 3.25679C25.1451 4.33676 25.4475 5.66985 25.4475 7.23918C25.4475 9.83786 24.6412 11.8122 23.0455 13.1621C22.424 13.6853 21.6178 14.0734 20.61 14.2927C19.6189 14.5121 18.2752 14.6302 16.5955 14.6302H10.851ZM10.851 11.6941H16.8643C18.5775 11.6941 19.7533 11.3566 20.4084 10.6985C21.1643 9.93911 21.5506 8.77476 21.5506 7.17168C21.5506 5.77109 21.1643 4.67425 20.3916 3.88114C19.7869 3.25679 18.5607 2.93617 16.7131 2.93617H10.851V11.6941Z" fill="#1D1D1B"/>
<path d="M27.4629 0H36.2477C38.6664 0 40.4469 0.168745 41.5723 0.523111C43.6719 1.18122 45.3012 2.66618 46.477 4.97799C47.3 6.59795 47.7031 8.70726 47.7031 11.2722C47.7031 16.4021 46.3258 19.8445 43.5543 21.5994C42.6977 22.1394 41.8074 22.4938 40.8668 22.6794C39.9262 22.865 38.4984 22.9494 36.5836 22.9494H27.4629V0ZM31.1246 2.93617V20.047H36.9531C39.5398 20.047 41.3539 19.2876 42.3953 17.7689C43.3527 16.3852 43.823 14.394 43.823 11.7616C43.823 8.79164 43.2687 6.53045 42.177 4.99486C41.6562 4.25238 40.9676 3.72927 40.1277 3.40866C39.2879 3.08804 38.1457 2.93617 36.7012 2.93617H31.1246Z" fill="#1D1D1B"/>
<path d="M66.4322 0V2.93617H59.7639C58.5377 2.93617 57.5803 3.02054 56.9084 3.18929C56.2365 3.35803 55.6318 3.66178 55.0943 4.08364C54.3553 4.67425 53.801 5.4336 53.4482 6.34483C53.0787 7.25605 52.8603 8.45415 52.7764 9.93911H66.449V12.8753H52.7764C52.7428 14.529 53.1123 16.0139 53.8682 17.3639C54.4393 18.3595 55.1447 19.0514 56.0182 19.4563C56.8748 19.8613 58.0674 20.0638 59.5959 20.0638H66.449V23H58.924C57.0092 23 55.4471 22.7806 54.2545 22.3419C52.1045 21.5488 50.5424 19.8445 49.5514 17.212C49.0139 15.7946 48.7451 14.0565 48.7451 11.9641C48.7451 9.19663 49.1818 6.95231 50.0553 5.23111C51.0295 3.34116 52.2557 1.9912 53.7506 1.21497C55.2455 0.421864 57.3283 0.0337491 59.999 0.0337491H66.4322V0Z" fill="#1D1D1B"/>
<path d="M86.0004 20.0469V22.9831H78.8953C76.8629 22.9831 75.2504 22.8144 74.0578 22.4769C71.6727 21.8019 69.9258 20.2157 68.8004 17.7351C67.9773 15.9464 67.5742 13.9215 67.5742 11.6603C67.5742 8.97723 68.1285 6.61479 69.2371 4.57297C70.1609 2.88552 71.3031 1.68743 72.6973 1.02932C74.0914 0.354337 76.0902 0.0168457 78.6938 0.0168457H86.0004V2.95302H78.8953C77.35 2.95302 76.1742 3.07114 75.3848 3.30738C74.5953 3.54363 73.9234 3.99924 73.3859 4.64047C72.7813 5.36608 72.3109 6.3448 71.975 7.61039C71.6391 8.87598 71.4711 10.2597 71.4711 11.7615C71.4711 14.5965 72.1262 16.7733 73.4531 18.2582C74.0746 18.9501 74.7801 19.4226 75.6031 19.6757C76.4262 19.9288 77.6188 20.0469 79.2145 20.0469H86.0004Z" fill="#1D1D1B"/>
</g>
<defs>
<clipPath id="clip0_1_246">
<rect width="86" height="23" fill="white"/>
</clipPath>
</defs>
</svg>